<?xml version="1.0" standalone="no"?>
<!DOCTYPE svg PUBLIC "-//W3C//DTD SVG 20010904//EN"
 "http://www.w3.org/TR/2001/REC-SVG-20010904/DTD/svg10.dtd">
<svg version="1.0" xmlns="http://www.w3.org/2000/svg"
 width="414.000000pt" height="419.000000pt" viewBox="0 0 414.000000 419.000000"
 preserveAspectRatio="xMidYMid meet">
<metadata>
Created by potrace 1.16, written by Peter Selinger 2001-2019
</metadata>
<g transform="translate(0.000000,419.000000) scale(0.100000,-0.100000)"
fill="#000000" stroke="none">
<path d="M1132 3937 l-22 -23 0 -536 c0 -501 1 -536 18 -543 9 -3 81 -3 160 1
l142 7 0 112 c0 61 -5 216 -11 343 -8 167 -7 246 0 284 l11 53 873 0 873 0
-60 -42 c-34 -24 -138 -93 -233 -155 l-172 -113 -1 -1121 0 -1122 -639 0 -640
-1 -7 47 c-4 26 -4 205 0 399 l7 353 -160 0 -161 0 0 -539 0 -540 26 -20 c26
-21 33 -21 800 -21 l774 0 0 -320 c0 -176 2 -320 5 -320 19 0 1232 616 1251
635 l24 24 0 1566 0 1566 -25 24 -24 25 -1394 0 -1394 0 -21 -23z"/>
<path d="M1750 2762 l0 -242 -774 0 c-926 0 -826 19 -826 -159 0 -110 2 -119
23 -139 l23 -22 777 0 777 0 0 -243 0 -242 322 323 323 322 -323 322 -322 323
0 -243z"/>
</g>
</svg>
